,
  Hottest scene tracker on the net !!!   http://www.scenetime.com
 
    seed back for speed


 



...................................NFO:.................................................VAMPS:

Unstoppable (2010) 
http://www.imdb.com/title/tt0477080/

Duration                         : 1h 38mn

Video
ID                               : 0
Format                           : MPEG-4 Visual
Format profile                   : Advanced Simple@L5
Format settings, BVOP            : Yes
Format settings, QPel            : No
Format settings, GMC             : No warppoints
Format settings, Matrix          : Default (H.263)
Codec ID                         : XVID
Codec ID/Hint                    : XviD
Duration                         : 1h 38mn
Bit rate                         : 845 Kbps
Width                            : 640 pixels
Height                           : 272 pixels
Display aspect ratio             : 2.35:1
Frame rate                       : 23.976 fps
Color space                      : YUV
Chroma subsampling               : 4:2:0
Bit depth                        : 8 bits
Scan type                        : Progressive
Bits/(Pixel*Frame)               : 0.217
Stream size                      : 603 MiB (86%)
Writing library                  : XviD 1.2.2

Audio
ID                               : 1
Format                           : MPEG Audio
Format version                   : Version 1
Format profile                   : Layer 3
Mode                             : Joint stereo
Mode extension                   : MS Stereo
Codec ID                         : 55
Codec ID/Hint                    : MP3
Duration                         : 1h 33mn
Bit rate mode                    : Constant
Bit rate                         : 162.0 Kbps
Channel(s)                       : 2 channels
Sampling rate                    : 48.0 KHz
Stream size                      : 84.3 MiB (14%)
Alignment                        : Aligned on interleaves
Interleave, duration             : 28 ms (0.68 video frame)
Interleave, preload duration     : 015 ms
Writing library                  : LAME3.91.